<svg width="40" height="40" viewBox="0 0 40 40" fill="none" xmlns="http://www.w3.org/2000/svg">
<g id="Group">
<path id="Vector" fill-rule="evenodd" clip-rule="evenodd" d="M20 3.33337C10.795 3.33337 3.33331 10.795 3.33331 20C3.33331 29.205 10.795 36.6667 20 36.6667C29.205 36.6667 36.6666 29.205 36.6666 20C36.6666 10.795 29.205 3.33337 20 3.33337ZM14.1666 15.8334C14.1666 15.0673 14.3175 14.3088 14.6107 13.6011C14.9038 12.8933 15.3335 12.2503 15.8752 11.7086C16.4169 11.1669 17.0599 10.7372 17.7677 10.4441C18.4754 10.1509 19.2339 10 20 10C20.766 10 21.5246 10.1509 22.2323 10.4441C22.94 10.7372 23.5831 11.1669 24.1248 11.7086C24.6664 12.2503 25.0961 12.8933 25.3893 13.6011C25.6824 14.3088 25.8333 15.0673 25.8333 15.8334C25.8333 17.3805 25.2187 18.8642 24.1248 19.9582C23.0308 21.0521 21.5471 21.6667 20 21.6667C18.4529 21.6667 16.9692 21.0521 15.8752 19.9582C14.7812 18.8642 14.1666 17.3805 14.1666 15.8334ZM30.43 28.3067C29.1824 29.8761 27.5963 31.1433 25.7903 32.0137C23.9842 32.8841 22.0048 33.3352 20 33.3334C17.9951 33.3352 16.0157 32.8841 14.2097 32.0137C12.4036 31.1433 10.8176 29.8761 9.56998 28.3067C12.2716 26.3684 15.9583 25 20 25C24.0416 25 27.7283 26.3684 30.43 28.3067Z" fill="white"/>
</g>
</svg>
