<?xml version="1.0" standalone="no"?>
<!DOCTYPE svg PUBLIC "-//W3C//DTD SVG 20010904//EN"
 "http://www.w3.org/TR/2001/REC-SVG-20010904/DTD/svg10.dtd">
<svg version="1.0" xmlns="http://www.w3.org/2000/svg"
 width="36.000000pt" height="33.000000pt" viewBox="0 0 36.000000 33.000000"
 preserveAspectRatio="xMidYMid meet">

<g transform="translate(0.000000,33.000000) scale(0.100000,-0.100000)"
fill="#000000" stroke="none">
<path d="M195 317 c-5 -13 5 -31 39 -67 25 -27 46 -54 46 -59 0 -7 -52 -12
-135 -13 -180 -4 -180 -22 0 -26 83 -1 135 -6 135 -13 0 -5 -21 -32 -46 -59
-34 -36 -44 -54 -39 -67 6 -15 20 -4 81 62 41 44 74 85 74 91 0 6 -33 46 -74
90 -61 65 -75 76 -81 61z"/>
</g>
</svg>
